<svg width="64" height="64" viewBox="0 0 64 64" fill="none" xmlns="http://www.w3.org/2000/svg">
<g clip-path="url(#clip0_9_4)">
<path d="M57.4213 18.9645C57.4619 19.533 57.4619 20.1016 57.4619 20.6701C57.4619 38.0101 44.264 57.9899 20.1421 57.9899C12.7106 57.9899 5.80713 55.8375 0 52.1016C1.05588 52.2234 2.071 52.264 3.1675 52.264C9.29938 52.264 14.9441 50.193 19.4518 46.66C13.6853 46.5381 8.85275 42.7615 7.18775 37.5635C8 37.6853 8.81213 37.7665 9.665 37.7665C10.8426 37.7665 12.0204 37.604 13.1168 37.3199C7.10663 36.1015 2.59888 30.8224 2.59888 24.4468V24.2844C4.345 25.259 6.37563 25.8681 8.52775 25.9493C4.99475 23.5939 2.68013 19.5736 2.68013 15.0254C2.68013 12.5889 3.32975 10.3554 4.46688 8.40613C10.9238 16.3655 20.6294 21.5634 31.5125 22.132C31.3095 21.1574 31.1876 20.1423 31.1876 19.127C31.1876 11.8985 37.0354 6.01025 44.3044 6.01025C48.081 6.01025 51.4921 7.594 53.8881 10.1524C56.8525 9.58388 59.6951 8.48738 62.213 6.98488C61.2383 10.0306 59.1673 12.589 56.4465 14.2133C59.0861 13.9291 61.6445 13.198 63.9998 12.1829C62.2133 14.7818 59.9796 17.0964 57.4213 18.9645Z" fill="white"/>
</g>
<defs>
<clipPath id="clip0_9_4">
<rect width="64" height="64" fill="white"/>
</clipPath>
</defs>
</svg>
