<svg width="64" height="64" viewBox="0 0 64 64" fill="none" xmlns="http://www.w3.org/2000/svg">
<path d="M54.2141 11.378C50.0713 9.4397 45.6415 8.03101 41.0104 7.22888C40.4416 8.25718 39.7772 9.64026 39.319 10.7405C34.396 10.0001 29.5182 10.0001 24.6858 10.7405C24.2277 9.64026 23.5481 8.25718 22.9743 7.22888C18.3382 8.03101 13.9033 9.44488 9.76051 11.3883C1.40438 24.0155 -0.86083 36.3291 0.271778 48.4678C5.814 52.6066 11.1851 55.1208 16.4655 56.766C17.7693 54.9717 18.9321 53.0642 19.9338 51.0539C18.026 50.329 16.1987 49.4344 14.4722 48.3959C14.9302 48.0565 15.3783 47.7017 15.8111 47.3367C26.3419 52.2622 37.7837 52.2622 48.1886 47.3367C48.6266 47.7017 49.0745 48.0565 49.5276 48.3959C47.7959 49.4395 45.9637 50.3341 44.0559 51.0591C45.0576 53.0642 46.2154 54.9768 47.5242 56.7711C52.8097 55.1259 58.1858 52.6118 63.728 48.4678C65.0569 34.3959 61.4578 22.1954 54.2141 11.378ZM21.3685 41.0026C18.2073 41.0026 15.6148 38.0514 15.6148 34.4576C15.6148 30.8638 18.1519 27.9075 21.3685 27.9075C24.5851 27.9075 27.1775 30.8586 27.1221 34.4576C27.1271 38.0514 24.5851 41.0026 21.3685 41.0026ZM42.6313 41.0026C39.4701 41.0026 36.8776 38.0514 36.8776 34.4576C36.8776 30.8638 39.4147 27.9075 42.6313 27.9075C45.8479 27.9075 48.4403 30.8586 48.385 34.4576C48.385 38.0514 45.8479 41.0026 42.6313 41.0026Z" fill="white"/>
</svg>
