<svg width="128" height="128" viewBox="0 0 128 128" fill="none" xmlns="http://www.w3.org/2000/svg">
<g clip-path="url(#clip0_7_83)">
<path d="M80.8841 100.886C99.9435 98.8194 117.912 88.9075 127.805 72.3636C123.12 113.283 77.2759 139.146 39.8555 123.267C36.4074 121.807 33.4394 119.38 31.4025 116.259C22.9931 103.371 20.2287 86.9714 24.2007 72.0891C35.549 91.2049 58.6239 102.923 80.8841 100.886Z" fill="#F3B01C"/>
<path d="M23.5023 60.0824C15.7767 77.5076 15.4421 97.9093 24.9136 114.699C-8.4185 90.2225 -8.05477 37.8457 24.5062 13.615C27.5179 11.3755 31.097 10.0462 34.8507 9.84389C50.2873 9.04921 65.9713 14.8721 76.9705 25.7231C54.623 25.9399 32.8574 39.9118 23.5023 60.0824Z" fill="#8D2676"/>
<path d="M87.7514 31.0835C76.4758 15.7389 58.8276 5.29237 39.4918 4.9745C76.8686 -11.5838 122.844 15.262 127.849 54.9529C128.314 58.6373 127.703 62.394 126.03 65.7172C119.047 79.5592 106.098 90.2946 90.9667 94.268C102.053 74.1987 100.686 49.6791 87.7514 31.0835Z" fill="#EE342F"/>
</g>
<defs>
<clipPath id="clip0_7_83">
<rect width="128" height="128" fill="white"/>
</clipPath>
</defs>
</svg>
