<svg width="128" height="128" viewBox="0 0 128 128" fill="none" xmlns="http://www.w3.org/2000/svg">
<path d="M108.428 22.7561C100.143 18.8794 91.2831 16.062 82.0208 14.4578C80.8833 16.5144 79.5543 19.2805 78.638 21.481C68.792 20.0003 59.0365 20.0003 49.3715 21.481C48.4554 19.2805 47.0963 16.5144 45.9486 14.4578C36.6763 16.062 27.8067 18.8898 19.521 22.7766C2.80876 48.031 -1.72166 72.6582 0.543555 96.9356C11.628 105.213 22.3702 110.242 32.9311 113.532C35.5386 109.943 37.8642 106.128 39.8676 102.108C36.052 100.658 32.3975 98.8689 28.9444 96.7917C29.8605 96.1131 30.7566 95.4035 31.6223 94.6734C52.6837 104.524 75.5675 104.524 96.3773 94.6734C97.2532 95.4035 98.1491 96.1131 99.0552 96.7917C95.5919 98.879 91.9274 100.668 88.1118 102.118C90.1152 106.128 92.4308 109.954 95.0483 113.542C105.619 110.252 116.372 105.224 127.456 96.9356C130.114 68.7919 122.916 44.3909 108.428 22.7561ZM42.7369 82.0052C36.4145 82.0052 31.2296 76.1028 31.2296 68.9152C31.2296 61.7276 36.3038 55.815 42.7369 55.815C49.1703 55.815 54.355 61.7172 54.2443 68.9152C54.2543 76.1028 49.1703 82.0052 42.7369 82.0052ZM85.2626 82.0052C78.9402 82.0052 73.7553 76.1028 73.7553 68.9152C73.7553 61.7276 78.8293 55.815 85.2626 55.815C91.6958 55.815 96.8807 61.7172 96.7699 68.9152C96.7699 76.1028 91.6958 82.0052 85.2626 82.0052Z" fill="#5865F2"/>
</svg>
