<svg width="128" height="128" viewBox="0 0 128 128" fill="none" xmlns="http://www.w3.org/2000/svg">
<g clip-path="url(#clip0_7_88)">
<path d="M41.1697 17.8079C37.7013 7.20411 52.8685 0.322811 66.4733 0.00692799C76.0473 -0.216048 91.7956 4.77615 92.658 12.7414C93.5204 20.7066 91.9518 31.3475 82.5966 32.7163C73.0851 34.1099 43.6882 25.4944 41.1697 17.8017V17.8079Z" fill="#F3B01C"/>
<path d="M20.8968 118.346C15.5349 100.786 52.8122 83.5736 77.2721 84.6946C94.4828 85.4874 110.3 93.2668 109.362 106.67C108.425 120.074 95.114 126.924 76.3847 127.5C57.6617 128.076 24.484 130.101 20.8968 118.346V118.346Z" fill="#EE342F"/>
<path d="M49.9125 36.7609C26.7525 32.9393 19.2907 54.0168 18.6846 60.0372C17.2597 74.1095 33.7767 75.3792 48.5439 75.1067C63.3111 74.8341 92.1518 77.7081 97.4512 71.8363C109.65 58.3277 73.0788 40.5763 49.9125 36.7609V36.7609Z" fill="white"/>
</g>
<defs>
<clipPath id="clip0_7_88">
<rect width="90.8037" height="128" fill="white" transform="translate(18.5981)"/>
</clipPath>
</defs>
</svg>
