<svg width="64" height="64" viewBox="0 0 64 64" fill="none" xmlns="http://www.w3.org/2000/svg">
<g clip-path="url(#clip0_9_2)">
<g clip-path="url(#clip1_9_2)">
<path fill-rule="evenodd" clip-rule="evenodd" d="M31.9047 0.5C14.2622 0.5 0 14.8673 0 32.6417C0 46.8497 9.13829 58.8765 21.8155 63.1331C23.4005 63.4531 23.9811 62.4415 23.9811 61.5906C23.9811 60.8455 23.9288 58.2913 23.9288 55.6301C15.0537 57.5462 13.2056 51.7986 13.2056 51.7986C11.7793 48.0736 9.66596 47.1162 9.66596 47.1162C6.76114 45.1472 9.87755 45.1472 9.87755 45.1472C13.0998 45.3601 14.7905 48.4464 14.7905 48.4464C17.6425 53.3418 22.238 51.9586 24.0869 51.107C24.3507 49.0316 25.1964 47.5949 26.0944 46.7968C19.0158 46.0517 11.5683 43.2847 11.5683 30.9385C11.5683 27.4264 12.8353 24.5529 14.8428 22.3181C14.526 21.5201 13.4165 18.2202 15.1602 13.8035C15.1602 13.8035 17.854 12.9519 23.9282 17.1028C26.5287 16.3992 29.2106 16.0413 31.9047 16.0383C34.5985 16.0383 37.3447 16.4112 39.8805 17.1028C45.9553 12.9519 48.6491 13.8035 48.6491 13.8035C50.3928 18.2202 49.2826 21.5201 48.9659 22.3181C51.0263 24.5529 52.241 27.4264 52.241 30.9385C52.241 43.2847 44.7935 45.9981 37.662 46.7968C38.8245 47.8078 39.8276 49.7232 39.8276 52.7567C39.8276 57.0669 39.7753 60.5261 39.7753 61.59C39.7753 62.4415 40.3566 63.4531 41.9409 63.1338C54.6181 58.8758 63.7564 46.8497 63.7564 32.6417C63.8087 14.8673 49.4942 0.5 31.9047 0.5Z" fill="white"/>
</g>
</g>
<defs>
<clipPath id="clip0_9_2">
<rect width="64" height="64" fill="white"/>
</clipPath>
<clipPath id="clip1_9_2">
<rect width="64" height="62.6939" fill="white" transform="translate(0 0.5)"/>
</clipPath>
</defs>
</svg>
