<svg width="640" height="72" viewBox="0 0 640 72" fill="none" xmlns="http://www.w3.org/2000/svg">
<g clip-path="url(#clip0_5_18)">
<path d="M380.243 36.2568L362.21 12.3475H383.112L420 60.988H398.895L390.694 50.1075L382.494 60.988H361.486L380.243 36.2568Z" fill="white"/>
<path d="M398.431 12.3475H419.236L403.267 33.6445L392.702 19.9972L398.431 12.3475Z" fill="white"/>
<path d="M93.6816 55.6008C88.6591 51.3284 86.1479 45.0133 86.1479 36.672C86.1479 28.3306 88.7079 22.0156 93.836 17.7431C98.9559 13.4707 105.961 11.3304 114.844 11.3304C118.534 11.3304 121.792 11.5827 124.629 12.1035C127.465 12.6162 130.179 13.487 132.772 14.724V28.2573C128.741 26.3449 124.165 25.3847 119.046 25.3847C114.535 25.3847 111.203 26.2391 109.058 27.9481C106.904 29.6571 105.831 32.5623 105.831 36.672C105.831 40.6433 106.888 43.516 109.009 45.29C111.122 47.0722 114.47 47.9593 119.054 47.9593C123.905 47.9593 128.513 46.8281 132.886 44.5739V58.7339C128.034 60.923 121.987 62.0135 114.746 62.0135C105.717 62.0135 98.704 59.8732 93.6816 55.6008Z" fill="white"/>
<path d="M137.258 36.6638C137.258 28.3875 139.615 22.0969 144.328 17.7838C149.042 13.4707 156.145 11.3223 165.645 11.3223C175.21 11.3223 182.362 13.4788 187.116 17.7838C191.862 22.0887 194.235 28.3875 194.235 36.6638C194.235 53.5581 184.703 62.0053 165.645 62.0053C146.718 62.0134 137.258 53.5663 137.258 36.6638ZM172.463 45.29C173.861 43.5078 174.56 40.6351 174.56 36.6719C174.56 32.7739 173.861 29.9174 172.463 28.1027C171.066 26.2879 168.79 25.3846 165.645 25.3846C162.573 25.3846 160.346 26.2961 158.981 28.1027C157.616 29.9174 156.933 32.7739 156.933 36.6719C156.933 40.6432 157.616 43.5159 158.981 45.29C160.346 47.0722 162.565 47.9592 165.645 47.9592C168.79 47.9592 171.058 47.0641 172.463 45.29Z" fill="white"/>
<path d="M198.721 12.3476H216.755L217.267 16.0423C219.25 14.6751 221.777 13.5439 224.849 12.6569C227.921 11.7699 231.099 11.3223 234.382 11.3223C240.461 11.3223 244.898 12.8278 247.702 15.8388C250.506 18.8499 251.904 23.4966 251.904 29.7954V60.9881H232.643V31.7403C232.643 29.5512 232.147 27.9806 231.156 27.0203C230.164 26.0601 228.506 25.5881 226.182 25.5881C224.752 25.5881 223.281 25.9136 221.777 26.5646C220.274 27.2156 219.014 28.0538 217.982 29.0792V60.9881H198.721V12.3476Z" fill="white"/>
<path d="M251.961 12.3475H272.042L281.266 40.871L290.49 12.3475H310.572L291.408 60.988H271.116L251.961 12.3475Z" fill="white"/>
<path d="M316.634 56.8052C310.848 52.4595 308.142 44.9157 308.142 36.7696C308.142 28.8351 310.295 22.3003 315.212 17.7838C320.129 13.2672 327.622 11.3223 337.081 11.3223C345.785 11.3223 352.628 13.3405 357.626 17.3769C362.616 21.4133 365.119 26.9227 365.119 33.8969V42.4173H328.491C329.402 44.9482 330.556 46.7792 333.392 47.9104C336.228 49.0416 340.186 49.6031 345.249 49.6031C348.272 49.6031 351.36 49.3671 354.497 48.887C355.603 48.7161 357.423 48.4475 358.382 48.2441V60.0685C353.595 61.3705 347.216 62.0216 340.023 62.0216C330.344 62.0134 322.421 61.1508 316.634 56.8052ZM344.883 31.9519C344.883 29.5431 342.112 24.3592 336.545 24.3592C331.523 24.3592 328.207 29.4617 328.207 31.9519H344.883Z" fill="white"/>
<path d="M45.4974 56.7482C56.2183 55.5859 66.3254 50.0105 71.8904 40.7046C69.2552 63.7215 43.4678 78.2696 22.4188 69.3376C20.4792 68.5167 18.8097 67.1513 17.6639 65.3958C12.9337 58.1461 11.3787 48.9214 13.6129 40.5502C19.9964 51.3028 32.976 57.8941 45.4974 56.7482Z" fill="#F3B01C"/>
<path d="M13.2201 33.7963C8.87441 43.598 8.68618 55.0739 14.0139 64.518C-4.7354 50.7501 -4.5308 21.2882 13.7847 7.65842C15.4788 6.39867 17.492 5.65094 19.6035 5.53716C28.2866 5.09015 37.1088 8.36551 43.2958 14.4692C30.7254 14.5911 18.4823 22.4504 13.2201 33.7963Z" fill="#8D2676"/>
<path d="M49.3602 17.4845C43.0177 8.8531 33.0906 2.97696 22.2142 2.79816C43.2386 -6.5159 69.0997 8.5849 71.915 30.911C72.1769 32.9835 71.8332 35.0966 70.892 36.9659C66.9637 44.752 59.6801 50.7907 51.1688 53.0258C57.405 41.7367 56.6357 27.9445 49.3602 17.4845Z" fill="#EE342F"/>
<path d="M472.348 31.5653L468.462 32.6621C468.08 31.5653 467.54 30.5718 466.84 29.6817C466.141 28.7915 465.227 28.0842 464.098 27.5596C462.986 27.0351 461.603 26.7728 459.95 26.7728C457.47 26.7728 455.435 27.3609 453.846 28.5372C452.256 29.7135 451.461 31.2315 451.461 33.0913C451.461 34.6649 452.002 35.9445 453.083 36.9301C454.179 37.8997 455.864 38.6706 458.137 39.2429L463.669 40.6019C466.737 41.349 469.034 42.5333 470.56 44.1546C472.102 45.776 472.873 47.8106 472.873 50.2585C472.873 52.3249 472.3 54.1609 471.156 55.7663C470.011 57.3718 468.414 58.6355 466.363 59.5574C464.329 60.4635 461.968 60.9165 459.282 60.9165C455.705 60.9165 452.757 60.1138 450.436 58.5083C448.115 56.887 446.629 54.5503 445.977 51.4984L450.055 50.4969C450.579 52.6746 451.604 54.3198 453.13 55.4325C454.672 56.5452 456.699 57.1016 459.21 57.1016C462.024 57.1016 464.273 56.4737 465.958 55.2179C467.643 53.9463 468.485 52.3567 468.485 50.4493C468.485 48.971 467.993 47.7311 467.007 46.7297C466.022 45.7124 464.527 44.9653 462.525 44.4884L456.54 43.0578C453.361 42.2948 451.008 41.0868 449.482 39.4336C447.956 37.7805 447.193 35.7299 447.193 33.282C447.193 31.2633 447.742 29.4909 448.839 27.965C449.935 26.4231 451.445 25.215 453.369 24.3408C455.292 23.4665 457.486 23.0294 459.95 23.0294C463.304 23.0294 465.982 23.7924 467.985 25.3183C470.004 26.8284 471.458 28.9107 472.348 31.5653Z" fill="white"/>
<path d="M495.63 60.9165C492.212 60.9165 489.255 60.1217 486.76 58.5322C484.264 56.9267 482.333 54.7093 480.966 51.8799C479.615 49.0346 478.939 45.7601 478.939 42.0564C478.939 38.3686 479.615 35.0941 480.966 32.2329C482.333 29.3558 484.216 27.1066 486.617 25.4852C489.033 23.848 491.823 23.0294 494.986 23.0294C496.973 23.0294 498.888 23.395 500.732 24.1262C502.576 24.8415 504.229 25.9462 505.691 27.4404C507.17 28.9187 508.338 30.7864 509.196 33.0436C510.055 35.2849 510.484 37.9394 510.484 41.0073V43.1055H481.872V39.3621H506.144C506.144 37.0095 505.668 34.8954 504.714 33.0197C503.776 31.1282 502.465 29.634 500.78 28.5372C499.111 27.4404 497.179 26.892 494.986 26.892C492.665 26.892 490.622 27.5119 488.858 28.7518C487.094 29.9916 485.711 31.6289 484.709 33.6635C483.724 35.6982 483.223 37.9235 483.207 40.3397V42.5809C483.207 45.4898 483.708 48.0331 484.709 50.2108C485.727 52.3726 487.165 54.0496 489.025 55.2418C490.885 56.434 493.086 57.03 495.63 57.03C497.362 57.03 498.88 56.7598 500.184 56.2194C501.503 55.6789 502.608 54.9557 503.498 54.0496C504.404 53.1277 505.087 52.1183 505.548 51.0215L509.578 52.3329C509.022 53.8748 508.108 55.2974 506.836 56.6009C505.58 57.9043 504.006 58.9534 502.115 59.7482C500.239 60.5271 498.077 60.9165 495.63 60.9165Z" fill="white"/>
<path d="M528.722 60.988C526.513 60.988 524.494 60.5589 522.666 59.7005C520.838 58.8262 519.384 57.5705 518.303 55.9332C517.222 54.2801 516.682 52.2773 516.682 49.9247C516.682 48.1126 517.023 46.5866 517.707 45.3468C518.39 44.1069 519.36 43.0896 520.616 42.2948C521.871 41.5 523.358 40.8722 525.074 40.4112C526.791 39.9502 528.683 39.5926 530.749 39.3382C532.8 39.0839 534.532 38.8614 535.947 38.6706C537.378 38.4799 538.466 38.1779 539.214 37.7646C539.961 37.3513 540.334 36.6837 540.334 35.7617V34.9034C540.334 32.4078 539.587 30.4447 538.093 29.0141C536.615 27.5676 534.485 26.8443 531.703 26.8443C529.064 26.8443 526.91 27.4245 525.241 28.5849C523.588 29.7453 522.428 31.1123 521.76 32.6859L517.731 31.2315C518.557 29.2286 519.702 27.6311 521.164 26.439C522.626 25.2309 524.264 24.3646 526.076 23.84C527.888 23.2996 529.724 23.0294 531.584 23.0294C532.982 23.0294 534.437 23.2122 535.947 23.5778C537.473 23.9434 538.888 24.5792 540.191 25.4852C541.495 26.3754 542.552 27.6232 543.362 29.2286C544.173 30.8182 544.578 32.8369 544.578 35.2849V60.1535H540.334V54.3596H540.072C539.563 55.4405 538.808 56.4896 537.807 57.5069C536.805 58.5242 535.55 59.3587 534.04 60.0105C532.529 60.6622 530.757 60.988 528.722 60.988ZM529.295 57.1016C531.552 57.1016 533.507 56.6009 535.16 55.5994C536.813 54.598 538.085 53.2707 538.975 51.6176C539.881 49.9485 540.334 48.1126 540.334 46.1098V40.8165C540.016 41.1186 539.484 41.3888 538.737 41.6272C538.005 41.8656 537.155 42.0802 536.185 42.271C535.232 42.4458 534.278 42.5968 533.324 42.724C532.37 42.8512 531.512 42.9624 530.749 43.0578C528.683 43.3121 526.918 43.7095 525.456 44.25C523.994 44.7904 522.873 45.5375 522.094 46.4913C521.315 47.4291 520.926 48.6372 520.926 50.1155C520.926 52.3408 521.72 54.0655 523.31 55.2895C524.9 56.4975 526.894 57.1016 529.295 57.1016Z" fill="white"/>
<path d="M554.525 60.1535V23.5301H558.65V29.1571H558.96C559.691 27.3132 560.963 25.827 562.775 24.6984C564.603 23.5539 566.67 22.9817 568.974 22.9817C569.324 22.9817 569.714 22.9896 570.143 23.0055C570.572 23.0214 570.93 23.0373 571.216 23.0532V27.3689C571.025 27.3371 570.691 27.2894 570.214 27.2258C569.737 27.1622 569.221 27.1304 568.664 27.1304C566.757 27.1304 565.056 27.5358 563.562 28.3464C562.084 29.1412 560.915 30.246 560.057 31.6607C559.199 33.0754 558.769 34.6888 558.769 36.5009V60.1535H554.525Z" fill="white"/>
<path d="M590.307 60.9165C587.032 60.9165 584.179 60.0979 581.747 58.4606C579.331 56.8234 577.455 54.5821 576.12 51.7368C574.785 48.8915 574.117 45.6488 574.117 42.0087C574.117 38.3368 574.792 35.0703 576.144 32.2091C577.511 29.3479 579.402 27.1066 581.818 25.4852C584.234 23.848 587.04 23.0294 590.235 23.0294C592.683 23.0294 594.9 23.5062 596.887 24.46C598.874 25.3978 600.512 26.7251 601.799 28.4418C603.103 30.1426 603.921 32.1296 604.255 34.4027H599.963C599.518 32.3362 598.445 30.5718 596.744 29.1094C595.059 27.6311 592.913 26.892 590.307 26.892C587.97 26.892 585.904 27.5278 584.107 28.7995C582.311 30.0552 580.904 31.8117 579.887 34.0689C578.886 36.3101 578.385 38.9091 578.385 41.8656C578.385 44.8381 578.878 47.4688 579.863 49.7578C580.849 52.0309 582.232 53.8112 584.012 55.0987C585.808 56.3863 587.906 57.03 590.307 57.03C591.928 57.03 593.406 56.728 594.741 56.124C596.093 55.5041 597.221 54.6298 598.127 53.5012C599.049 52.3726 599.669 51.0294 599.987 49.4717H604.279C603.961 51.6812 603.174 53.6522 601.918 55.3848C600.678 57.1016 599.065 58.4527 597.078 59.4382C595.107 60.4237 592.85 60.9165 590.307 60.9165Z" fill="white"/>
<path d="M616.276 37.2639V60.1535H612.032V11.3223H616.276V29.2763H616.658C617.516 27.3848 618.843 25.8747 620.64 24.7461C622.452 23.6175 624.741 23.0532 627.507 23.0532C629.986 23.0532 632.164 23.5619 634.04 24.5792C635.915 25.5965 637.378 27.0986 638.427 29.0856C639.476 31.0725 640 33.5205 640 36.4294V60.1535H635.733V36.6916C635.733 33.6715 634.89 31.2951 633.205 29.5625C631.536 27.8139 629.279 26.9397 626.434 26.9397C624.478 26.9397 622.738 27.353 621.212 28.1795C619.686 29.0061 618.478 30.1983 617.588 31.756C616.713 33.2979 616.276 35.1339 616.276 37.2639Z" fill="white"/>
</g>
<defs>
<clipPath id="clip0_5_18">
<rect width="640" height="72" fill="white"/>
</clipPath>
</defs>
</svg>
